<?xml version="1.0" encoding="UTF-8"?>
<svg xmlns="http://www.w3.org/2000/svg"
    viewBox="0 0 24 24"
    version="1.1"
    width="48px"
    height="48px">
<g id="surface1">
<path style=" " d="M 1 7 L 1 18.761719 L 23 18.761719 L 23 7 Z M 6 18 L 4.054688 18 L 2 8 L 4.0625 8 L 5.394531 15.6875 C 5.394531 15.6875 7 8.59375 7 8.378906 C 7 8.160156 6.785156 8 6.789063 8 C 6.773438 8.003906 8 8 8 8 L 5.886719 17.488281 Z M 15 18 L 13 18 L 13 14.449219 L 12 15 L 11 15 L 11 18 L 9 18 L 9 14.960938 L 8.59375 14.960938 L 9 14.25 L 9 8 L 11 8 L 11 14 L 13 14 L 13 8 L 15 8 Z M 17.488281 10.738281 C 17.699219 10.992188 18.03125 11.265625 18.476563 11.542969 L 19.699219 12.316406 C 20.476563 12.804688 21.03125 13.257813 21.351563 13.671875 C 21.675781 14.101563 21.839844 14.609375 21.839844 15.191406 C 21.839844 15.96875 21.605469 16.699219 21.027344 17.222656 C 20.460938 17.742188 19.882813 18 19 18 C 19 18 16.058594 18.007813 16 18 L 15.757813 17.34375 C 15.757813 17.34375 19.121094 17.289063 19.777344 16.769531 C 20.144531 16.484375 20.230469 16.105469 20.230469 15.621094 C 20.230469 15.183594 20.042969 14.84375 19.734375 14.523438 C 19.53125 14.3125 19.082031 13.988281 18.410156 13.558594 L 17.21875 12.800781 C 16.851563 12.566406 16.558594 12.320313 16.335938 12.078125 C 15.925781 11.605469 15.714844 11.078125 15.714844 10.507813 C 15.714844 9.761719 15.960938 9.128906 16.449219 8.632813 C 16.964844 8.101563 18.09375 8 19 8 C 19.109375 8 22 8 22 8 L 21.730469 8.667969 C 21.730469 8.667969 18.472656 8.660156 17.765625 9.085938 C 17.488281 9.253906 17.207031 9.535156 17.207031 9.910156 C 17.207031 10.25 17.289063 10.5 17.488281 10.738281 Z "/>
</g>
</svg>
